<svg xmlns="http://www.w3.org/2000/svg" viewBox="0 0 1600 430" role="img" aria-label="Ram Mittal quantitative research hero">
<rect width="1600" height="430" fill="#111214"/>
<rect x="20" y="20" width="1560" height="390" fill="none" stroke="#c7b895" stroke-width="2" opacity=".9"/>
<g fill="#f2efe8" font-family="monospace">
<text x="75" y="105" font-size="34" letter-spacing="7">RAM MITTAL</text>
<text x="75" y="153" font-size="22" letter-spacing="3">QUANTITATIVE RESEARCH · FINANCIAL ENGINEERING</text>
<text x="75" y="188" font-size="22" letter-spacing="3">MARKET MICROSTRUCTURE</text>
<text x="75" y="300" font-size="20" letter-spacing="3">MARKET DATA</text>
<text x="390" y="300" font-size="20" letter-spacing="3">MODEL</text>
<text x="675" y="300" font-size="20" letter-spacing="3">EXECUTION</text>
<text x="1000" y="300" font-size="20" letter-spacing="3">VALIDATION</text>
</g>
<line x1="75" y1="230" x2="1120" y2="230" stroke="#c7b895" stroke-width="2"/>
<g fill="none" stroke="#c7b895" stroke-width="2" opacity=".55">
<path d="M1180 320 C1220 280 1240 300 1270 245 S1320 190 1350 225 S1400 165 1430 185 S1480 130 1530 155"/>
<path d="M1180 345 C1230 325 1260 350 1300 315 S1360 290 1400 305 S1460 250 1530 270"/>
</g>
<g stroke="#c7b895" stroke-width="1" opacity=".5">
<path d="M1160 85h350M1160 110h350M1160 135h350M1160 160h350M1160 185h350M1160 210h350M1160 235h350M1160 260h350M1160 285h350M1160 310h350M1160 335h350"/>
</g>
<g stroke="#f2efe8" stroke-width="2" fill="none">
<path d="M260 292h75m-10-7 10 7-10 7"/><path d="M535 292h75m-10-7 10 7-10 7"/><path d="M825 292h75m-10-7 10 7-10 7"/>
</g>
<g fill="#c7b895" font-family="monospace" font-size="12" letter-spacing="2"><text x="1260" y="70">DATA</text><text x="1260" y="90">MODELS</text><text x="1260" y="110">SYSTEMS</text><text x="1260" y="130">MARKETS</text></g>
</svg>