<svg xmlns="http://www.w3.org/2000/svg" viewBox="0 0 1200 360" role="img" aria-label="Ram Mittal quantitative research hero">
<rect width="1200" height="360" fill="#111214"/>
<rect x="16" y="16" width="1168" height="328" fill="none" stroke="#c7b895" stroke-width="2"/>
<g fill="#f2efe8" font-family="monospace">
<text x="52" y="76" font-size="28" letter-spacing="5">RAM MITTAL</text>
<text x="52" y="112" font-size="17" letter-spacing="2">QUANTITATIVE RESEARCH · FINANCIAL ENGINEERING</text>
<text x="52" y="140" font-size="17" letter-spacing="2">MARKET MICROSTRUCTURE</text>
</g>
<line x1="52" y1="177" x2="1148" y2="177" stroke="#c7b895" stroke-width="2"/>
<g fill="#f2efe8" font-family="monospace" font-size="15" letter-spacing="2">
<text x="70" y="228">MARKET DATA</text>
<text x="300" y="228">MODEL</text>
<text x="500" y="228">EXECUTION</text>
<text x="735" y="228">VALIDATION</text>
</g>
<g stroke="#f2efe8" stroke-width="2" fill="none">
<path d="M220 221h52m-9-7 9 7-9 7"/>
<path d="M390 221h72m-9-7 9 7-9 7"/>
<path d="M630 221h72m-9-7 9 7-9 7"/>
</g>
<!-- restrained market-data panel inspired by the approved reference -->
<g stroke="#c7b895" stroke-width="1" opacity=".55">
<line x1="835" y1="245" x2="1145" y2="245"/>
<line x1="835" y1="262" x2="1145" y2="262"/>
<line x1="835" y1="279" x2="1145" y2="279"/>
<line x1="835" y1="296" x2="1145" y2="296"/>
<line x1="835" y1="313" x2="1145" y2="313"/>
<line x1="835" y1="330" x2="1145" y2="330"/>
</g>
<g fill="#c7b895" font-family="monospace" font-size="9" letter-spacing="2" text-anchor="middle">
<text x="875" y="241">DATA</text>
<text x="945" y="241">MODELS</text>
<text x="1020" y="241">SYSTEMS</text>
<text x="1090" y="241">MARKETS</text>
</g>
<g fill="none" stroke="#c7b895" stroke-width="2" opacity=".8">
<path d="M835 325 C870 310 890 314 915 294 S950 260 975 278 S1010 300 1035 270 S1070 252 1090 263 S1120 245 1145 250"/>
<path d="M835 337 C875 330 900 338 930 320 S970 305 995 316 S1035 328 1060 310 S1105 286 1145 296"/>
</g>
</svg>